<svg xmlns="http://www.w3.org/2000/svg" viewBox="0 0 64 64" fill="none">
  <defs>
    <linearGradient id="grad" x1="0" y1="0" x2="1" y2="1">
      <stop offset="0%" stop-color="#5b8def"/>
      <stop offset="100%" stop-color="#3b6dcf"/>
    </linearGradient>
  </defs>
  <!-- body -->
  <ellipse cx="32" cy="36" rx="22" ry="14" fill="url(#grad)"/>
  <!-- tail -->
  <path d="M54 36 Q62 24 58 20 Q56 28 54 36" fill="url(#grad)"/>
  <path d="M54 36 Q62 48 58 52 Q56 44 54 36" fill="url(#grad)"/>
  <!-- eye -->
  <circle cx="22" cy="32" r="3" fill="white"/>
  <circle cx="22" cy="32" r="1.5" fill="#1a1d23"/>
  <!-- water spout -->
  <path d="M18 24 Q16 18 14 14 Q18 18 20 20 Q22 14 24 12 Q22 18 20 22" fill="none" stroke="#7ba5f5" stroke-width="1.5" stroke-linecap="round"/>
  <!-- fin -->
  <path d="M32 26 Q28 20 34 18 Q34 22 32 26" fill="#3b6dcf"/>
  <!-- smile -->
  <path d="M18 38 Q22 42 28 38" fill="none" stroke="white" stroke-width="1.5" stroke-linecap="round"/>
</svg>
